<!-- Generator: Adobe Illustrator 23.0.1, SVG Export Plug-In  -->
<svg version="1.1" xmlns="http://www.w3.org/2000/svg" xmlns:xlink="http://www.w3.org/1999/xlink" x="0px" y="0px" width="80px"
	 height="58px" viewBox="0 0 80 58" style="enable-background:new 0 0 80 58;" xml:space="preserve">
<style type="text/css">
	.st0{fill:#FFFFFF;stroke:#000000;stroke-width:6;stroke-linecap:round;stroke-miterlimit:10;}
	.st1{fill:none;stroke:#EA3281;stroke-width:3;stroke-miterlimit:10;}
	.st2{fill:url(#SVGID_1_);}
	.st3{fill:#FFFFFF;}
	.st4{fill:url(#SVGID_2_);}
	.st5{fill:url(#SVGID_3_);}
	.st6{fill:url(#SVGID_4_);}
</style>
<defs>
</defs>
<g>
	<g>
		<path class="st0" d="M56,16"/>
		<path class="st0" d="M80,45.5"/>
	</g>
	<path class="st1" d="M11,39c-26.5,28.5,14.8-2.5,18-5c9.8-7.4,54.5-44.5,14.5-21.5"/>
	<linearGradient id="SVGID_1_" gradientUnits="userSpaceOnUse" x1="40.9957" y1="49.7917" x2="16.9917" y2="8.2155">
		<stop  offset="3.844246e-03" style="stop-color:#58004D"/>
		<stop  offset="0.2862" style="stop-color:#730F8E"/>
		<stop  offset="0.4141" style="stop-color:#7C1695"/>
		<stop  offset="0.6211" style="stop-color:#942BA6"/>
		<stop  offset="0.8802" style="stop-color:#BB4CC3"/>
		<stop  offset="1" style="stop-color:#CF5DD2"/>
	</linearGradient>
	<path class="st2" d="M48.5,15C44,8.8,36.6,5,29,5C15.7,5,5,15.7,5,29s10.7,24,24,24s24-10.7,24-24C53,22.3,50.1,17.2,48.5,15z
		 M7,35c-1,3,3,5,3,8C10,40,6,38,7,35z"/>
	<g>
		<path class="st3" d="M9.3,18c0.9-1.8,2.2-3.4,3.7-4.7c0.6-0.5,1.1-1.1,1.8-1.5c0.3-0.2,1.4-0.7,1.5,0c0,0.2-0.1,0.4-0.3,0.6
			c-1.4,1.9-2.8,3.9-3.8,6c-0.5,1.1-0.9,2.2-1.2,3.3c-0.3,1-0.2,2.5-0.7,3.4c-0.5,0.7-1.5,0.7-2.1,0.1c-0.8-0.8-0.6-2.3-0.3-3.3
			C8.1,20.5,8.7,19.2,9.3,18z"/>
	</g>
	<linearGradient id="SVGID_2_" gradientUnits="userSpaceOnUse" x1="8.4939" y1="8.4939" x2="49.5061" y2="49.5061">
		<stop  offset="0" style="stop-color:#FF33FF"/>
		<stop  offset="4.934032e-02" style="stop-color:#F12FF4;stop-opacity:0.9271"/>
		<stop  offset="0.2603" style="stop-color:#BB22C8;stop-opacity:0.6153"/>
		<stop  offset="0.4426" style="stop-color:#9417A9;stop-opacity:0.3457"/>
		<stop  offset="0.5874" style="stop-color:#7C1195;stop-opacity:0.1318"/>
		<stop  offset="0.6765" style="stop-color:#730F8E;stop-opacity:0"/>
	</linearGradient>
	<circle class="st4" cx="29" cy="29" r="29"/>
	<path class="st1" d="M7.8,42.5C-11.9,64.8,25.9,36.3,29,34c9.5-7.3,52.6-43,16.9-22.9"/>
</g>
</svg>
