<svg xmlns="http://www.w3.org/2000/svg" xmlns:xlink="http://www.w3.org/1999/xlink" viewBox="0 0 61.35 58"><defs><style>.cls-1,.cls-4{fill:#fff;}.cls-1{stroke:#000;stroke-linecap:round;stroke-width:6px;}.cls-1,.cls-2{stroke-miterlimit:10;}.cls-2{fill:none;stroke:#ea3281;stroke-width:3px;}.cls-3{fill:url(#linear-gradient);}.cls-5{fill:url(#linear-gradient-2);}</style><linearGradient id="linear-gradient" x1="653" y1="319.79" x2="628.99" y2="278.22" gradientUnits="userSpaceOnUse"><stop offset="0" stop-color="#58004d"/><stop offset="0.29" stop-color="#730f8e"/><stop offset="0.41" stop-color="#7c1695"/><stop offset="0.62" stop-color="#942ba6"/><stop offset="0.88" stop-color="#bb4cc3"/><stop offset="1" stop-color="#cf5dd2"/></linearGradient><linearGradient id="linear-gradient-2" x1="8.49" y1="8.49" x2="49.51" y2="49.51" gradientUnits="userSpaceOnUse"><stop offset="0" stop-color="#f3f"/><stop offset="0.12" stop-color="#df2be5" stop-opacity="0.77"/><stop offset="0.27" stop-color="#b921c6" stop-opacity="0.5"/><stop offset="0.41" stop-color="#9b19ae" stop-opacity="0.28"/><stop offset="0.53" stop-color="#85149d" stop-opacity="0.13"/><stop offset="0.62" stop-color="#781092" stop-opacity="0.03"/><stop offset="0.68" stop-color="#730f8e" stop-opacity="0"/></linearGradient></defs><title>planet01</title><g id="Layer_4" data-name="Layer 4"><path class="cls-1" d="M668,286" transform="translate(-612 -270)"/><path class="cls-1" d="M692,315.5" transform="translate(-612 -270)"/><path class="cls-2" d="M623,309c-26.5,28.5,14.79-2.55,18-5,9.75-7.44,54.5-44.5,14.5-21.5" transform="translate(-612 -270)"/><path class="cls-3" d="M660.48,285A24.42,24.42,0,0,0,641,275a24,24,0,1,0,24,24A24.72,24.72,0,0,0,660.48,285ZM619,305c-1,3,3,5,3,8C622,310,618,308,619,305Z" transform="translate(-612 -270)"/><path class="cls-2" d="M619.83,312.49c-19.7,22.28,18.1-6.15,21.17-8.49,9.55-7.29,52.64-43,16.9-22.87" transform="translate(-612 -270)"/><path class="cls-4" d="M621.33,288a17.48,17.48,0,0,1,3.67-4.74,13.86,13.86,0,0,1,1.8-1.53c.28-.18,1.4-.74,1.45,0a1,1,0,0,1-.28.64,35.18,35.18,0,0,0-3.84,6,18.33,18.33,0,0,0-1.2,3.3c-.27,1-.15,2.48-.73,3.37a1.42,1.42,0,0,1-2.14.11c-.85-.8-.56-2.27-.29-3.26A19.94,19.94,0,0,1,621.33,288Z" transform="translate(-612 -270)"/><circle class="cls-5" cx="29" cy="29" r="29"/></g></svg>